<?xml version="1.0" encoding="UTF-8"?>
<!DOCTYPE svg PUBLIC "-//W3C//DTD SVG 1.1//EN" "http://www.w3.org/Graphics/SVG/1.1/DTD/svg11.dtd">
<!-- Creator: CorelDRAW -->
<svg xmlns="http://www.w3.org/2000/svg" xml:space="preserve" width="6.94091in" height="2.29079in" version="1.1" style="shape-rendering:geometricPrecision; text-rendering:geometricPrecision; image-rendering:optimizeQuality; fill-rule:evenodd; clip-rule:evenodd"
viewBox="0 0 6940.91 2290.79"
 xmlns:xlink="http://www.w3.org/1999/xlink"
 xmlns:xodm="http://www.corel.com/coreldraw/odm/2003">
 <defs>
  <style type="text/css">
   <![CDATA[
    .fil0 {fill:#4A148C}
    .fil2 {fill:#E85708}
    .fil1 {fill:#F3BC02}
   ]]>
  </style>
 </defs>
 <g id="Layer_x0020_1">
  <metadata id="CorelCorpID_0Corel-Layer"/>
  <path class="fil0" d="M1155.19 2290.79c171.14,0 243.28,-130.72 303.43,-264.37 14.13,-31.4 21.92,-42.1 35.46,-82.02 46.09,-135.92 312.1,-735.84 326.81,-799l110.83 212.22c13.59,32.05 17.3,44.67 32.72,74.96l266.43 614.64c20.93,56.66 36.25,100.76 72.13,143.25 69.84,82.72 204.46,110.7 288.87,39.17 58.17,-49.29 75.83,-134.73 99.06,-204.43l443.17 -1015.5c51.9,-119.87 143.19,-228.49 214,-334.22 -39.83,3.31 -46.32,16.72 -75.8,41.68 -101.19,85.72 -310.26,344.04 -394.18,457.52 -16.05,21.69 -31.69,45.47 -51.28,66.2 -51.37,54.4 -330.35,427.94 -350.04,501.67 -47.11,-31.55 -176.93,-286.61 -205.44,-342.79l-333 -597.02c-208.55,17.35 -283.63,139.61 -391.72,293.56l-203.5 305.57c-45.5,68.25 -128.15,175.22 -148.8,252.57 -26.09,-19.11 -46.63,-79.72 -63.84,-112.38l-60.12 -116.09c-22.3,-44.85 -41.39,-72.39 -62.06,-114.16 -9.38,-18.97 -18.97,-40.54 -29.51,-58.59l-352.41 -626.56c-82,-162.82 -218.5,-421.31 -369.88,-520.98l-100.17 -76.04c-18.52,-16.76 -30.57,-20.18 -67.86,-20.25 -50.36,-0.09 -49.64,-0.35 -88.49,-9.41 14,60.09 158.13,366.92 195.78,450.34 22.94,50.82 40.33,97.67 65.39,149.98l393.41 898.83c41.87,107 259.47,624.73 294.85,674.33 9.19,12.87 11.98,15.02 21.35,27.6 42.08,56.47 95.69,89.7 184.41,89.7z"/>
  <path class="fil0" d="M5696.98 1388.21l0 733.69c0,145.26 163.35,199.8 241.49,97.28 26.37,-34.6 13.05,-367.64 13.05,-422.43l9.07 8.95c10.11,14.95 3.15,2.75 9.63,16.8 4.85,10.51 7.02,20.15 11.91,31.55l86.85 184.48 146.85 0 94.86 -211.02c6.88,-10.7 6.64,-8.02 12.83,-14.09 0,97.24 0.67,194.63 -0.04,291.85 -0.43,58.73 2.06,78.37 36.53,110.62 40.65,38.03 96.82,74.1 159.63,48.03 36.78,-15.27 68.2,-44.41 68.2,-83.65l0 -850.41c0,-129.98 -253.7,-147.32 -316.57,-19.48l-127.31 300.1c-14.48,37.38 4.05,17.44 -26.02,36.2l-146.56 -350.41c-77.96,-131.27 -274.39,-71.65 -274.39,91.95z"/>
  <path class="fil0" d="M4502.64 2046.86c-33.76,0 -37.91,-6.16 -68.53,-8.33 -22.56,-82.47 -9.79,-439.7 -9.79,-550.27 0,-53.96 195.79,-29.72 195.79,75.04l0 391.86c0,49.59 -58.44,91.7 -117.47,91.7zm-342.65 -792.05l9.79 1017.16c289.83,0 509.71,42.17 646,-158.52 95.66,-140.88 65.91,-590.38 -3.72,-730.31 -134.57,-189.13 -379.31,-153.34 -622.7,-153.34 -22.56,0 -29.37,5.8 -29.37,25.01z"/>
  <path class="fil0" d="M5178.13 1946.82l0 -408.53c0,-47.61 22.54,-76.7 59.82,-91.22 58.12,-22.65 80.65,12.48 116.4,32.86l0 525.25c-23.44,13.37 -45.45,41.69 -78.32,41.69 -61.25,0 -97.9,-46.23 -97.9,-100.04zm-254.53 -483.57l0 541.93c0,114.09 146.79,266.8 323.06,266.8 128.8,0 188.57,-6.05 281.56,-85.37 55.33,-47.19 90.44,-106.68 90.44,-198.1l0 -475.23c0,-164.17 -162.98,-291.81 -323.06,-291.81 -108.57,0 -186.67,5.41 -266.93,72.82 -43.42,36.47 -105.08,100.49 -105.08,168.96z"/>
  <path class="fil0" d="M3396.19 1321.51c0,77.69 57,129.99 119.09,140.36 46.51,7.76 204.73,1.37 262.7,1.37l-303.48 508.58c-37.78,64.4 -88.11,124.56 -88.11,200.09 0,44.93 52.73,100.05 107.69,100.05l469.91 0c191.35,0 147.17,-225.11 0,-225.11l-244.75 0c2.27,-23.19 4.61,-27.17 16.03,-44.71l50.81 -81.78c24.03,-40.99 314.96,-517 314.96,-557.17 0,-55.05 -12.57,-133.4 -107.68,-133.4l-509.07 0c-29.4,0 -88.11,41.74 -88.11,91.71z"/>
  <path class="fil0" d="M3063.55 1313.18l0 850.41c0,92.12 166.83,162.91 245.32,67.19 38.91,-47.46 28.79,-89.74 28.79,-167.24 0,-63.92 -0.07,-127.84 0,-191.76 0.08,-72.61 -9.87,-110.82 -9.79,-183.43l-0.29 -383.27c-19.54,-132.09 -264.03,-115.8 -264.03,8.09z"/>
  <path class="fil1" d="M910.44 871.28c0,109.96 44.22,203.58 108.3,263.72l54.44 43.46c120.87,66.55 283.29,31.04 348.32,-50.65l60.06 -86.79c54.06,-114.26 25.64,-277.55 -53.83,-383.54 -91.05,-121.43 -266.81,-142.5 -370.83,-70.49 -86.88,60.14 -146.46,168.19 -146.46,284.29z"/>
  <path class="fil0" d="M6676.59 1346.52l0 800.39c0,52.24 61.1,125.06 156.64,125.06 57.2,0 107.68,-43 107.68,-91.71l0 -867.09c0,-124.17 -264.32,-128.67 -264.32,33.35z"/>
  <path class="fil2" d="M2467.01 1419.5c84.61,0 127.71,-1.89 193.68,-70.64 160.08,-166.81 -13.6,-519.18 -262.59,-409.43 -231.8,102.17 -183.96,480.07 68.91,480.07z"/>
 </g>
</svg>
