<?xml version="1.0" encoding="UTF-8"?>
<!DOCTYPE svg PUBLIC "-//W3C//DTD SVG 1.1//EN" "http://www.w3.org/Graphics/SVG/1.1/DTD/svg11.dtd">
<!-- Creator: CorelDRAW -->
<svg xmlns="http://www.w3.org/2000/svg" xml:space="preserve" width="3.34808in" height="2.29079in" version="1.1" style="shape-rendering:geometricPrecision; text-rendering:geometricPrecision; image-rendering:optimizeQuality; fill-rule:evenodd; clip-rule:evenodd"
viewBox="0 0 3348.08 2290.79"
 xmlns:xlink="http://www.w3.org/1999/xlink"
 xmlns:xodm="http://www.corel.com/coreldraw/odm/2003">
 <defs>
  <style type="text/css">
   <![CDATA[
    .fil0 {fill:#4A148C}
    .fil2 {fill:#E85708}
    .fil1 {fill:#F3BC02}
   ]]>
  </style>
 </defs>
 <g id="Layer_x0020_1">
  <metadata id="CorelCorpID_0Corel-Layer"/>
  <path class="fil0" d="M1152.3 2292.06c171.14,0 243.28,-130.72 303.43,-264.37 14.13,-31.4 21.92,-42.1 35.46,-82.02 46.09,-135.92 312.1,-735.84 326.81,-799l110.83 212.22c13.59,32.05 17.3,44.67 32.72,74.96l266.43 614.64c20.93,56.66 36.25,100.76 72.13,143.25 69.84,82.72 204.46,110.7 288.87,39.17 58.17,-49.29 75.83,-134.73 99.06,-204.43l443.17 -1015.5c51.9,-119.87 143.19,-228.49 214,-334.22 -39.83,3.31 -46.32,16.72 -75.8,41.68 -101.19,85.72 -310.26,344.04 -394.18,457.52 -16.05,21.69 -31.69,45.47 -51.28,66.2 -51.37,54.4 -330.35,427.94 -350.04,501.67 -47.11,-31.55 -176.93,-286.61 -205.44,-342.79l-333 -597.02c-208.55,17.35 -283.63,139.61 -391.72,293.56l-203.5 305.57c-45.5,68.25 -128.15,175.22 -148.8,252.57 -26.09,-19.11 -46.63,-79.72 -63.84,-112.38l-60.12 -116.09c-22.3,-44.85 -41.39,-72.39 -62.06,-114.16 -9.38,-18.97 -18.97,-40.54 -29.51,-58.59l-352.41 -626.56c-82,-162.82 -218.5,-421.31 -369.88,-520.98l-100.17 -76.04c-18.52,-16.76 -30.57,-20.18 -67.86,-20.25 -50.36,-0.09 -49.64,-0.35 -88.49,-9.41 14,60.09 158.13,366.92 195.78,450.34 22.94,50.82 40.33,97.67 65.39,149.98l393.41 898.83c41.87,107 259.47,624.73 294.85,674.33 9.19,12.87 11.98,15.02 21.35,27.6 42.08,56.47 95.69,89.7 184.41,89.7z"/>
  <path class="fil1" d="M907.56 872.55c0,109.96 44.22,203.58 108.3,263.72l54.44 43.46c120.87,66.55 283.29,31.04 348.32,-50.65l60.06 -86.79c54.06,-114.26 25.64,-277.55 -53.83,-383.54 -91.05,-121.43 -266.81,-142.5 -370.83,-70.49 -86.88,60.14 -146.46,168.19 -146.46,284.29z"/>
  <path class="fil2" d="M2464.12 1420.77c84.61,0 127.71,-1.89 193.68,-70.64 160.08,-166.81 -13.6,-519.18 -262.59,-409.43 -231.8,102.17 -183.96,480.07 68.91,480.07z"/>
 </g>
</svg>
